# xmcd
#
# Track frame offsets: 
#        150
#        20869
#        39888
#        58262
#        77285
#        86774
#        101937
#        124297
#        141520
#        160658
#        183458
#        204942
#        222290
#
# Disc length: 3295 seconds
#
# Revision: 3
# Processed by: cddbd v1.5.2PL0 Copyright (c) Steve Scherf et al.
# Submitted via: ExactAudioCopyFreeDBPlugin 1.0
#
DISCID=b80cdd0d
DTITLE=Andrzej Rosiewicz - Orzeł z Wisły
DYEAR=2001
DGENRE=Pop
TTITLE0=Adam Małysz-Orzeł Biały - wersja radiowa
TTITLE1=Serce na śniegu
TTITLE2=Blondynka szczęście ci da
TTITLE3=Lewinsky - story
TTITLE4=Piosenka o prawdzie
TTITLE5=????
TTITLE6=Aerobik
TTITLE7=Pojechali do La Scali
TTITLE8=Klódka na corridzie
TTITLE9=Pytasz mnie
TTITLE10=Murarze do murów
TTITLE11=A to juz final
TTITLE12=Adam Małysz - Orzeł biały - wersja koncertowa
EXTD=
EXTT0=
EXTT1=
EXTT2=
EXTT3=
EXTT4=
EXTT5=
EXTT6=
EXTT7=
EXTT8=
EXTT9=
EXTT10=
EXTT11=
EXTT12=
PLAYORDER=
